<svg width="45" height="45" viewBox="0 0 45 45" fill="none" xmlns="http://www.w3.org/2000/svg">
<g clip-path="url(#clip0)">
<path d="M16.5806 23.7206C13.9706 23.7206 11.8538 25.8375 11.8538 28.4475V40.2713C11.8538 42.8813 13.9706 44.9981 16.5806 44.9981C19.1906 44.9981 21.3075 42.8813 21.3075 40.2713V28.4475C21.3056 25.8375 19.1888 23.7206 16.5806 23.7206Z" fill="#E91E63"/>
<path d="M0.0356445 28.4474C0.0356445 31.0593 2.15439 33.1781 4.76627 33.1781C7.37814 33.1781 9.49689 31.0593 9.49689 28.4474V23.7168H4.77002C4.76814 23.7168 4.76814 23.7168 4.76627 23.7168C2.15439 23.7168 0.0356445 25.8356 0.0356445 28.4474Z" fill="#E91E63"/>
<path d="M16.5862 -0.00189209C16.5843 -0.00189209 16.5825 -0.00189209 16.5806 -0.00189209C13.9687 -0.00189209 11.85 2.11686 11.85 4.72873C11.85 7.34061 13.9687 9.45936 16.5806 9.45936H21.3075V4.72873C21.3075 4.72686 21.3075 4.72311 21.3075 4.71936C21.3056 2.11123 19.1925 -0.00189209 16.5862 -0.00189209Z" fill="#00BCD4"/>
<path d="M4.73441 21.3188H16.5807C19.1925 21.3188 21.3113 19.2 21.3113 16.5881C21.3113 13.9763 19.1925 11.8575 16.5807 11.8575H4.73441C2.12253 11.8575 0.00378418 13.9763 0.00378418 16.5881C0.00378418 19.2 2.12253 21.3188 4.73441 21.3188Z" fill="#00BCD4"/>
<path d="M40.2319 11.8556C37.6237 11.8556 35.5106 13.9687 35.5106 16.5769V16.5862V21.3169H40.2375C42.8494 21.3169 44.9681 19.1981 44.9681 16.5862C44.9681 13.9744 42.8494 11.8556 40.2375 11.8556C40.2356 11.8556 40.2337 11.8556 40.2319 11.8556Z" fill="#4CAF50"/>
<path d="M23.7019 4.72874V16.5881C23.7019 19.1981 25.8188 21.315 28.4288 21.315C31.0388 21.315 33.1557 19.1981 33.1557 16.5881V4.72874C33.1557 2.11874 31.0388 0.00186157 28.4288 0.00186157C25.8188 0.00186157 23.7019 2.11874 23.7019 4.72874Z" fill="#4CAF50"/>
<path d="M33.1538 40.2675C33.1538 37.6575 31.0369 35.5406 28.4269 35.5406H23.7001V40.2712C23.7019 42.8794 25.8169 44.9944 28.4269 44.9944C31.0369 44.9944 33.1538 42.8775 33.1538 40.2675Z" fill="#FF9800"/>
<path d="M40.2732 23.7168H28.4269C25.815 23.7168 23.6963 25.8356 23.6963 28.4474C23.6963 31.0593 25.815 33.1781 28.4269 33.1781H40.2732C42.885 33.1781 45.0038 31.0593 45.0038 28.4474C45.0038 25.8356 42.885 23.7168 40.2732 23.7168Z" fill="#FF9800"/>
</g>
<defs>
<clipPath id="clip0">
<rect width="45" height="45" fill="white"/>
</clipPath>
</defs>
</svg>
